<?xml version="1.0" standalone="no"?>
<!DOCTYPE svg PUBLIC "-//W3C//DTD SVG 20010904//EN"
 "http://www.w3.org/TR/2001/REC-SVG-20010904/DTD/svg10.dtd">
<svg version="1.0" xmlns="http://www.w3.org/2000/svg"
 width="250.000000pt" height="250.000000pt" viewBox="0 0 250.000000 250.000000"
 preserveAspectRatio="xMidYMid meet">

<g transform="translate(0.000000,250.000000) scale(0.100000,-0.100000)"
fill="#000000" stroke="none">
<path d="M1083 1770 c-47 -28 -77 -92 -69 -145 9 -56 65 -121 130 -151 66 -31
86 -31 86 0 0 20 -11 29 -64 54 -113 53 -151 141 -85 196 38 33 69 33 107 1
84 -71 86 -231 8 -570 -13 -55 -23 -101 -22 -101 1 -1 15 1 32 3 30 5 32 8 43
66 17 87 21 97 36 97 22 0 38 -39 31 -78 -3 -19 -1 -43 5 -53 11 -22 58 -26
77 -7 16 16 15 39 0 36 -9 -2 -13 13 -13 52 0 45 -3 56 -21 65 l-22 11 24 27
c29 34 34 73 7 56 -10 -6 -30 -29 -45 -50 -33 -46 -52 -51 -45 -11 2 15 12 70
22 122 40 219 -27 400 -148 400 -24 0 -56 -8 -74 -20z"/>
<path d="M807 1650 c-30 -26 -38 -28 -68 -20 -125 36 -244 -31 -244 -138 0
-28 -7 -57 -18 -72 -34 -49 -13 -79 86 -123 46 -21 57 -30 57 -49 0 -25 17
-48 35 -48 5 0 11 18 11 39 1 21 9 50 19 64 29 44 116 72 153 48 7 -4 14 -23
14 -41 1 -26 -6 -40 -33 -64 -39 -35 -46 -26 -30 43 l9 43 -31 -6 c-17 -3 -32
-7 -33 -9 -2 -1 -12 -42 -22 -89 l-19 -86 26 -7 c14 -4 28 -7 30 -8 2 -1 9 16
15 38 10 33 16 40 36 40 38 0 56 -44 40 -100 -20 -72 -80 -115 -160 -115 -70
0 -120 31 -120 75 0 50 56 57 161 19 44 -16 75 -22 81 -16 15 15 -91 54 -165
59 -61 5 -70 3 -92 -17 -53 -50 -19 -127 66 -151 81 -22 218 29 272 103 11 15
22 49 25 77 4 43 1 53 -20 73 -25 23 -25 23 -7 53 25 39 24 70 -2 96 -19 19
-29 21 -83 16 -48 -4 -57 -3 -41 6 23 13 108 15 149 4 l29 -8 -6 45 c-6 41 -5
45 16 48 33 4 60 66 51 115 -17 91 -117 125 -187 63z m122 -5 c33 -17 41 -33
41 -84 0 -25 -7 -44 -20 -56 -21 -19 -42 -13 -22 7 7 7 12 16 12 22 0 6 -5 5
-12 -2 -19 -19 -41 -15 -33 6 18 42 16 55 -4 25 -24 -38 -41 -42 -42 -10 0 21
-1 21 -10 -3 -5 -14 -22 -35 -37 -48 l-27 -24 32 16 c56 28 77 17 89 -44 7
-32 6 -33 -22 -27 -74 14 -186 -33 -223 -94 -15 -24 -20 -27 -25 -14 -3 9 -6
31 -7 48 0 23 -2 27 -7 14 -7 -16 -10 -15 -33 10 -61 66 -76 124 -44 170 l15
22 25 -25 c27 -27 60 -30 110 -10 45 19 38 -4 -10 -30 -19 -10 -33 -20 -31
-22 9 -8 65 29 101 68 43 46 121 100 142 100 8 0 27 -7 42 -15z m-179 -36 c0
-10 -66 -43 -110 -54 -15 -3 -33 0 -45 9 -19 14 -19 15 -1 35 16 17 31 21 88
21 41 0 68 -4 68 -11z m-140 -282 c0 -8 3 -23 6 -32 5 -12 -9 -7 -47 16 -62
37 -89 59 -89 71 0 4 9 17 20 28 l20 20 45 -44 c25 -24 45 -51 45 -59z"/>
<path d="M1575 1505 c-82 -13 -169 -24 -192 -25 -39 0 -43 -2 -43 -25 0 -23 4
-25 46 -25 26 0 103 12 173 26 161 34 255 36 304 5 20 -12 38 -27 41 -34 3 -7
4 3 3 22 -5 79 -93 94 -332 56z"/>
<path d="M2004 1372 c-31 -3 -32 -5 -48 -84 -16 -80 -37 -128 -57 -128 -19 0
-20 28 -1 113 l19 87 -33 0 c-30 0 -34 -3 -39 -37 -4 -21 -11 -54 -16 -73 -5
-19 -9 -52 -9 -73 0 -50 32 -67 80 -42 24 12 31 13 28 3 -3 -7 -25 -23 -50
-35 -49 -23 -88 -65 -88 -93 0 -24 32 -50 62 -50 36 0 71 31 93 82 10 24 20
44 21 46 1 2 12 -2 24 -8 15 -8 20 -18 17 -31 -6 -24 12 -21 27 4 14 21 -1 47
-36 64 l-25 13 33 122 c18 68 32 123 31 123 -1 0 -16 -1 -33 -3z m-94 -291 c0
-21 -43 -80 -62 -87 -51 -16 -43 43 10 74 41 24 52 27 52 13z"/>
<path d="M1695 1340 c-28 -5 -30 -8 -52 -110 -30 -138 -30 -138 7 -132 21 3
32 11 35 26 3 11 12 55 20 96 9 41 21 78 28 82 19 12 34 9 41 -7 8 -22 46 -1
46 26 0 28 -28 35 -61 17 -20 -12 -29 -13 -31 -4 -2 7 -14 10 -33 6z"/>
<path d="M1533 1325 c-17 -7 -44 -33 -60 -56 -23 -35 -28 -53 -28 -103 0 -54
3 -61 26 -75 16 -9 36 -12 52 -7 30 7 67 39 67 58 0 9 -3 9 -12 0 -7 -7 -24
-12 -39 -12 -21 0 -28 6 -31 25 -5 22 1 28 38 44 64 29 98 108 55 131 -25 13
-29 12 -68 -5z m57 -30 c0 -28 -24 -67 -52 -81 -31 -16 -34 -10 -17 33 19 51
69 86 69 48z"/>
<path d="M1100 1281 c0 -5 -17 -7 -37 -4 -46 6 -84 -20 -113 -78 -37 -71 -21
-169 26 -169 22 0 71 27 77 42 3 9 10 6 22 -9 20 -29 37 -29 61 -2 14 16 15
23 7 26 -17 6 -16 53 2 128 19 78 20 75 -15 75 -16 0 -30 -4 -30 -9z m-16 -29
c7 -11 -23 -143 -36 -159 -6 -8 -21 -13 -32 -11 -17 2 -21 10 -20 39 1 52 11
82 35 112 20 26 43 35 53 19z"/>
<path d="M676 1063 c-3 -8 -6 -19 -6 -24 0 -14 34 -11 55 4 17 13 16 15 -13
25 -25 8 -32 8 -36 -5z"/>
<path d="M1710 1048 c0 -25 -68 -95 -113 -117 -71 -34 -157 -52 -252 -52 -112
0 -188 22 -339 98 -65 33 -115 52 -125 48 -22 -9 201 -127 304 -161 224 -74
565 8 565 136 0 15 -9 35 -20 45 -16 15 -20 15 -20 3z"/>
<path d="M1335 1018 c-50 -6 -97 -16 -106 -24 -8 -8 -34 -14 -57 -14 -23 0
-42 -5 -42 -11 0 -6 16 -8 44 -4 24 4 51 3 60 -2 24 -13 297 15 317 33 8 8 32
14 52 14 20 0 37 3 37 8 0 11 -202 11 -305 0z"/>
</g>
</svg>
